<svg width="26" height="26" viewBox="0 0 26 26" fill="none" xmlns="http://www.w3.org/2000/svg">
<path d="M19.1083 0.860442C15.0743 0.0465191 10.9258 0.0465194 6.89179 0.860442C4.36521 1.37022 2.3319 3.30484 1.63436 5.86272L1.575 6.08041C0.752833 9.09528 0.752833 12.2859 1.575 15.3008L1.63436 15.5184C2.3319 18.0763 4.36521 20.0109 6.89179 20.5207C8.58907 20.8632 10.3066 21.0615 12.0274 21.1158V23.7421H9.75787C9.22069 23.7421 8.78522 24.1916 8.78522 24.746C8.78522 25.3005 9.22069 25.75 9.75787 25.75H16.2422C16.7794 25.75 17.2149 25.3005 17.2149 24.746C17.2149 24.1916 16.7794 23.7421 16.2422 23.7421H13.9727V21.1158C15.6935 21.0615 17.411 20.8632 19.1083 20.5207C21.6349 20.0109 23.6682 18.0763 24.3657 15.5184L24.4251 15.3007C25.2472 12.2859 25.2472 9.09528 24.4251 6.08042L24.3657 5.86272C23.6682 3.30484 21.6349 1.37022 19.1083 0.860442Z" fill="white"/>
</svg>
