<svg width="23" height="25" viewBox="0 0 23 25" fill="none" xmlns="http://www.w3.org/2000/svg">
<path d="M13.6752 3.7998C13.6752 3.22296 13.4461 2.66974 13.0382 2.26185C12.6303 1.85396 12.0771 1.6248 11.5002 1.6248C10.9234 1.6248 10.3702 1.85396 9.96229 2.26185C9.5544 2.66974 9.32524 3.22296 9.32524 3.7998H7.87524C7.87524 2.83839 8.25716 1.91636 8.93698 1.23654C9.6168 0.556723 10.5388 0.174805 11.5002 0.174805C12.4617 0.174805 13.3837 0.556723 14.0635 1.23654C14.7433 1.91636 15.1252 2.83839 15.1252 3.7998H21.6502C21.8425 3.7998 22.0269 3.87619 22.1629 4.01215C22.2989 4.14812 22.3752 4.33252 22.3752 4.52481C22.3752 4.71709 22.2989 4.90149 22.1629 5.03746C22.0269 5.17342 21.8425 5.2498 21.6502 5.2498H20.8469L18.9677 21.5333C18.8859 22.24 18.5472 22.892 18.0159 23.3652C17.4847 23.8385 16.798 24.0999 16.0866 24.0998H6.91389C6.20245 24.0999 5.51579 23.8385 4.98455 23.3652C4.45331 22.892 4.11456 22.24 4.03274 21.5333L2.15209 5.2498H1.35024C1.18056 5.24986 1.01623 5.1904 0.885869 5.08177C0.755512 4.97313 0.667388 4.82222 0.636844 4.6553L0.625244 4.52481C0.625244 4.33252 0.701628 4.14812 0.837592 4.01215C0.973556 3.87619 1.15796 3.7998 1.35024 3.7998H13.6752ZM19.3853 5.2498H3.61369L5.47259 21.3666C5.51352 21.72 5.683 22.0461 5.94877 22.2828C6.21454 22.5194 6.55805 22.65 6.91389 22.6498H16.0866C16.4422 22.6497 16.7853 22.5189 17.0508 22.2823C17.3163 22.0457 17.4856 21.7198 17.5264 21.3666L19.3853 5.2498ZM9.32524 8.87481C9.68049 8.87481 9.97774 9.09956 10.0386 9.39536L10.0502 9.5099V18.3912C10.0502 18.7406 9.72544 19.0248 9.32524 19.0248C8.96999 19.0248 8.67274 18.8001 8.61185 18.5043L8.60024 18.3897V9.51136C8.60024 9.16045 8.92504 8.87626 9.32524 8.87626V8.87481ZM13.6752 8.87481C14.0305 8.87481 14.3277 9.09956 14.3886 9.39536L14.4002 9.5099V18.3912C14.4002 18.7406 14.0754 19.0248 13.6752 19.0248C13.32 19.0248 13.0227 18.8001 12.9618 18.5043L12.9502 18.3897V9.51136C12.9502 9.16045 13.275 8.87626 13.6752 8.87626V8.87481Z" fill="url(#paint0_linear_1156_1999)"/>
<defs>
<linearGradient id="paint0_linear_1156_1999" x1="0.625244" y1="-1.29427" x2="25.8361" y2="2.25669" gradientUnits="userSpaceOnUse">
<stop stop-color="#FFA100"/>
<stop offset="0.0001" stop-color="#FFA100"/>
<stop offset="1" stop-color="#FF005C"/>
</linearGradient>
</defs>
</svg>
